<svg xmlns="http://www.w3.org/2000/svg" width="74" height="84" viewBox="0 0 74 84">
    <g fill="none" fill-rule="nonzero">
        <path fill="#FBDD25" d="M49.075 32.488h10.74c1.68 0 2.445 2.1 1.16 3.184L4.304 83.562c-1.473 1.245-3.605-.384-2.796-2.137l14.248-30.889H1.805c-1.434 0-2.293-1.595-1.506-2.796L31.07.814A1.8 1.8 0 0 1 32.576 0h39.506c1.524 0 2.36 1.78 1.387 2.956L49.075 32.488z"/>
        <path fill="#EACD1D" d="M72.164 0h-5.536L34.652 36.715c-1.017 1.168-.189 2.992 1.357 2.992h2.322c1.629 0 2.42 1.994 1.238 3.116l-35.87 34.03-2.11 4.572c-.809 1.753 1.323 3.382 2.796 2.137l56.672-47.89c1.285-1.084.52-3.184-1.16-3.184h-10.74L73.551 2.956C74.523 1.779 73.688 0 72.164 0z"/>
    </g>
</svg>
