<svg xmlns="http://www.w3.org/2000/svg" width="29" height="43" viewBox="0 0 29 43">
    <path fill="#3067F0" fill-rule="nonzero" d="M12.775 31.556c1.322 1.39 2.075 1.445 3.45 0l10.11-10.903c.95-1.682.173-3.058-1.725-3.058h-4.546V2.342C20.064 1.049 19.068 0 17.84 0h-6.677C9.934 0 8.937 1.05 8.937 2.342v15.253H4.39c-1.898 0-2.674 1.377-1.725 3.058l10.11 10.903zm14.413 5.57H1.812c-1 0-1.812 1.052-1.812 2.35v1.174C0 41.95.812 43 1.812 43h25.376c1 0 1.812-1.052 1.812-2.35v-1.175c0-1.297-.812-2.35-1.812-2.35z"/>
</svg>
