<svg xmlns="http://www.w3.org/2000/svg" width="61" height="60" viewBox="0 0 61 60">
    <g fill="none" fill-rule="nonzero">
        <path fill="#455A64" d="M27.232 0C12.216 0 0 12.235 0 27.273s12.216 27.272 27.232 27.272 27.232-12.234 27.232-27.272C54.464 12.234 42.248 0 27.232 0zm11.452 45.487l-1.174-2.022a.763.763 0 0 0-1.037-.275.759.759 0 0 0-.275 1.04l1.176 2.024a21.32 21.32 0 0 1-8.709 2.502V45.9c0-.792-.642-1.435-1.433-1.435S25.8 45.108 25.8 45.9v2.855a21.316 21.316 0 0 1-8.592-2.44l1.162-2.031c.1-.176.127-.38.074-.577a.754.754 0 0 0-.73-.561.762.762 0 0 0-.66.382l-1.162 2.029a21.687 21.687 0 0 1-6.513-6.303l2.463-1.424c.685-.396.92-1.274.525-1.96a1.432 1.432 0 0 0-1.958-.526L7.94 36.77a21.403 21.403 0 0 1-2.19-8.67l2.34-.008a.755.755 0 0 0 .756-.762.76.76 0 0 0-.759-.758l-2.343.008c.1-3.151.88-6.132 2.196-8.803l2.467 1.426a1.432 1.432 0 0 0 1.958-.525 1.437 1.437 0 0 0-.525-1.961l-2.464-1.424a21.682 21.682 0 0 1 6.403-6.234l1.174 2.022a.75.75 0 0 0 .277.277.765.765 0 0 0 .76-.002.754.754 0 0 0 .352-.463.755.755 0 0 0-.078-.576L17.09 8.293A21.318 21.318 0 0 1 25.8 5.791v2.855a1.434 1.434 0 1 0 2.866 0V5.791a21.315 21.315 0 0 1 8.592 2.44l-1.162 2.032a.761.761 0 0 0 .657 1.137.761.761 0 0 0 .659-.382l1.161-2.028a21.684 21.684 0 0 1 6.515 6.302l-2.464 1.425a1.436 1.436 0 0 0 .718 2.678c.243 0 .49-.062.715-.192l2.467-1.427a21.398 21.398 0 0 1 2.19 8.672l-2.34.007a.755.755 0 0 0-.756.762.763.763 0 0 0 .759.757h.002l2.341-.007a21.41 21.41 0 0 1-2.195 8.803l-2.467-1.427a1.432 1.432 0 0 0-1.958.526 1.436 1.436 0 0 0 .524 1.96l2.464 1.424a21.694 21.694 0 0 1-6.403 6.234z"/>
        <path fill="#2196F3" d="M37.988 20.467l-9.356 4.13a2.998 2.998 0 0 0-2.8 0c-.709.403-1.18.864-1.416 1.381-.235.518-.283 1.143-.144 1.876a3.018 3.018 0 0 0 2.96 2.44 3.018 3.018 0 0 0 2.96-2.44l8.617-6.045c.899-.68 1.212-1.012.928-1.5-.285-.49-.615-.33-1.75.158z"/>
        <path fill="#FBDD25" d="M51.49 40.6h4.116c.644 0 .937.79.445 1.199L34.328 59.835c-.565.469-1.382-.145-1.072-.805l5.462-11.633H33.37c-.55 0-.878-.601-.577-1.053L44.588 28.67a.693.693 0 0 1 .577-.306h15.143c.585 0 .905.67.532 1.113l-9.35 11.122z"/>
    </g>
</svg>
