<svg xmlns="http://www.w3.org/2000/svg" width="384" height="58" viewBox="0 0 384 58">
    <g fill="none" fill-rule="evenodd">
        <g fill-rule="nonzero">
            <path fill="#263238" fill-opacity=".87" d="M269.126 41l-1.56-7.848h1.44l.672 3.96c.132.84.264 1.68.396 2.508h.048c.156-.828.336-1.68.504-2.508l.972-3.96h1.2l.972 3.96c.168.816.348 1.668.516 2.508h.048c.132-.84.252-1.68.384-2.508l.672-3.96h1.344L275.222 41h-1.728l-.972-4.128a53.264 53.264 0 0 1-.348-1.812h-.048c-.108.6-.216 1.2-.348 1.812L270.83 41h-1.704zm8.436-1.584c0-1.26 1.056-1.92 3.468-2.184-.012-.624-.276-1.152-1.068-1.152-.588 0-1.14.264-1.656.576l-.504-.924c.648-.408 1.476-.768 2.412-.768 1.476 0 2.196.9 2.196 2.544V41h-1.128l-.108-.648h-.036c-.528.444-1.128.792-1.824.792-1.032 0-1.752-.696-1.752-1.728zm1.344-.108c0 .528.348.756.84.756.48 0 .852-.24 1.284-.648v-1.32c-1.596.204-2.124.624-2.124 1.212zM283.622 41v-.744l2.784-4.056h-2.472v-1.092h4.2v.732l-2.772 4.056h2.868V41h-4.608zm6.48-6.924c-.492 0-.852-.324-.852-.78 0-.468.36-.792.852-.792s.852.324.852.792c0 .456-.36.78-.852.78zM289.406 41v-5.892h1.38V41h-1.38zm3.144 0v-5.892h1.14l.096 1.044h.048c.42-.768 1.044-1.188 1.668-1.188.3 0 .492.036.672.12l-.24 1.2a1.926 1.926 0 0 0-.612-.096c-.468 0-1.032.324-1.392 1.212V41h-1.38zm3.744 0l2.22-4.044-2.088-3.804h1.548l.876 1.74c.18.36.348.732.588 1.2h.048c.192-.468.36-.84.528-1.2l.828-1.74h1.476l-2.088 3.864L302.462 41h-1.548l-.96-1.848a68.618 68.618 0 0 1-.624-1.284h-.048c-.204.48-.396.876-.588 1.284L297.77 41h-1.476zm9.648 0v-5.892h1.14l.096 1.044h.048c.42-.768 1.044-1.188 1.668-1.188.3 0 .492.036.672.12l-.24 1.2a1.926 1.926 0 0 0-.612-.096c-.468 0-1.032.324-1.392 1.212V41h-1.38zm4.092-2.94c0-1.92 1.332-3.096 2.712-3.096 1.596 0 2.436 1.152 2.436 2.796 0 .264-.024.504-.06.648h-3.744c.12 1.068.792 1.668 1.74 1.668.504 0 .936-.156 1.368-.432l.468.864c-.564.372-1.272.636-2.016.636-1.632 0-2.904-1.14-2.904-3.084zm1.332-.528h2.616c0-.936-.396-1.5-1.2-1.5-.696 0-1.296.516-1.416 1.5zm5.136 1.956v-6.96h1.38v7.032c0 .336.156.456.3.456.06 0 .108 0 .216-.024l.18 1.032c-.168.072-.408.12-.732.12-.984 0-1.344-.636-1.344-1.656zm2.868-1.428c0-1.92 1.332-3.096 2.712-3.096 1.596 0 2.436 1.152 2.436 2.796 0 .264-.024.504-.06.648h-3.744c.12 1.068.792 1.668 1.74 1.668.504 0 .936-.156 1.368-.432l.468.864c-.564.372-1.272.636-2.016.636-1.632 0-2.904-1.14-2.904-3.084zm1.332-.528h2.616c0-.936-.396-1.5-1.2-1.5-.696 0-1.296.516-1.416 1.5zm4.884 1.884c0-1.26 1.056-1.92 3.468-2.184-.012-.624-.276-1.152-1.068-1.152-.588 0-1.14.264-1.656.576l-.504-.924c.648-.408 1.476-.768 2.412-.768 1.476 0 2.196.9 2.196 2.544V41h-1.128l-.108-.648h-.036c-.528.444-1.128.792-1.824.792-1.032 0-1.752-.696-1.752-1.728zm1.344-.108c0 .528.348.756.84.756.48 0 .852-.24 1.284-.648v-1.32c-1.596.204-2.124.624-2.124 1.212zm4.596 1.02l.648-.888c.528.408 1.032.66 1.632.66.636 0 .936-.3.936-.708 0-.492-.636-.708-1.26-.948-.78-.288-1.656-.732-1.656-1.716 0-1.032.828-1.764 2.148-1.764.816 0 1.476.336 1.956.708l-.636.84c-.408-.3-.828-.504-1.296-.504-.588 0-.864.276-.864.648 0 .456.588.648 1.224.876.804.3 1.692.684 1.692 1.788 0 1.008-.804 1.824-2.292 1.824-.804 0-1.656-.348-2.232-.816zm5.376-2.268c0-1.92 1.332-3.096 2.712-3.096 1.596 0 2.436 1.152 2.436 2.796 0 .264-.024.504-.06.648h-3.744c.12 1.068.792 1.668 1.74 1.668.504 0 .936-.156 1.368-.432l.468.864c-.564.372-1.272.636-2.016.636-1.632 0-2.904-1.14-2.904-3.084zm1.332-.528h2.616c0-.936-.396-1.5-1.2-1.5-.696 0-1.296.516-1.416 1.5zm4.548 2.796l.648-.888c.528.408 1.032.66 1.632.66.636 0 .936-.3.936-.708 0-.492-.636-.708-1.26-.948-.78-.288-1.656-.732-1.656-1.716 0-1.032.828-1.764 2.148-1.764.816 0 1.476.336 1.956.708l-.636.84c-.408-.3-.828-.504-1.296-.504-.588 0-.864.276-.864.648 0 .456.588.648 1.224.876.804.3 1.692.684 1.692 1.788 0 1.008-.804 1.824-2.292 1.824-.804 0-1.656-.348-2.232-.816zm8.22-.84v-6.96h1.38v7.032c0 .336.156.456.3.456.06 0 .108 0 .216-.024l.18 1.032c-.168.072-.408.12-.732.12-.984 0-1.344-.636-1.344-1.656zm2.868-1.428c0-1.968 1.332-3.096 2.796-3.096 1.476 0 2.808 1.128 2.808 3.096 0 1.956-1.332 3.084-2.808 3.084-1.464 0-2.796-1.128-2.796-3.084zm1.416 0c0 1.176.516 1.956 1.38 1.956.864 0 1.392-.78 1.392-1.956 0-1.188-.528-1.968-1.392-1.968-.864 0-1.38.78-1.38 1.968zm5.172 0c0-1.968 1.38-3.096 2.952-3.096.756 0 1.332.3 1.728.684l-.66.876c-.312-.276-.624-.432-.996-.432-.948 0-1.608.78-1.608 1.968 0 1.176.648 1.956 1.572 1.956.48 0 .888-.24 1.212-.504l.576.876a2.951 2.951 0 0 1-1.932.756c-1.608 0-2.844-1.128-2.844-3.084zm5.928 2.94v-8.472h1.356v5.292h.036l2.184-2.712h1.512l-2.016 2.4 2.22 3.492h-1.5l-1.512-2.556-.924 1.056V41h-1.356zm5.88-2.94c0-1.92 1.332-3.096 2.712-3.096 1.596 0 2.436 1.152 2.436 2.796 0 .264-.024.504-.06.648h-3.744c.12 1.068.792 1.668 1.74 1.668.504 0 .936-.156 1.368-.432l.468.864c-.564.372-1.272.636-2.016.636-1.632 0-2.904-1.14-2.904-3.084zm1.332-.528h2.616c0-.936-.396-1.5-1.2-1.5-.696 0-1.296.516-1.416 1.5zm4.776.528c0-1.92 1.212-3.096 2.496-3.096.672 0 1.092.252 1.548.648l-.048-.948v-2.136h1.38V41h-1.14l-.096-.636h-.048c-.432.432-1.032.78-1.668.78-1.476 0-2.424-1.14-2.424-3.084zm1.428-.012c0 1.272.48 1.956 1.332 1.956.456 0 .84-.204 1.236-.66v-2.748c-.408-.36-.804-.492-1.2-.492-.756 0-1.368.708-1.368 1.944zM270.95 51.556v-4.404h1.392v4.512c0 1.704.648 2.268 1.596 2.268.96 0 1.62-.564 1.62-2.268v-4.512h1.344v4.404c0 2.58-1.152 3.588-2.964 3.588-1.824 0-2.988-1.008-2.988-3.588zm7.332 2.436l.804-.948c.564.528 1.32.888 2.052.888.876 0 1.368-.396 1.368-1.008 0-.648-.504-.852-1.224-1.152l-1.068-.468c-.78-.324-1.584-.936-1.584-2.088 0-1.248 1.104-2.208 2.628-2.208.924 0 1.812.384 2.424.996l-.72.888c-.492-.42-1.032-.672-1.704-.672-.744 0-1.224.348-1.224.924 0 .612.6.84 1.248 1.104l1.056.444c.936.396 1.584.984 1.584 2.124 0 1.272-1.056 2.328-2.82 2.328a4.037 4.037 0 0 1-2.82-1.152zM285.326 55v-7.848h2.088c2.4 0 3.828 1.296 3.828 3.888 0 2.604-1.428 3.96-3.756 3.96h-2.16zm1.392-1.128h.6c1.584 0 2.496-.9 2.496-2.832 0-1.92-.912-2.76-2.496-2.76h-.6v5.592zM294.386 55v-6.672h-2.268v-1.176h5.916v1.176h-2.256V55h-1.392zm7.488-1.992V50.2h-.84v-1.032l.912-.06.168-1.608h1.152v1.608h1.5V50.2h-1.5v2.808c0 .696.264 1.032.828 1.032.204 0 .444-.06.612-.132l.24 1.02a3.763 3.763 0 0 1-1.2.216c-1.368 0-1.872-.864-1.872-2.136zm3.744-.948c0-1.968 1.332-3.096 2.796-3.096 1.476 0 2.808 1.128 2.808 3.096 0 1.956-1.332 3.084-2.808 3.084-1.464 0-2.796-1.128-2.796-3.084zm1.416 0c0 1.176.516 1.956 1.38 1.956.864 0 1.392-.78 1.392-1.956 0-1.188-.528-1.968-1.392-1.968-.864 0-1.38.78-1.38 1.968zm7.896 4.164c.108.036.276.084.42.084.624 0 .984-.42 1.176-1.008l.108-.372-2.316-5.82h1.404l1.02 2.892c.168.516.336 1.104.516 1.656h.048c.144-.54.3-1.128.444-1.656l.888-2.892h1.332l-2.136 6.156c-.492 1.332-1.104 2.16-2.388 2.16a2.29 2.29 0 0 1-.768-.12l.252-1.08zm5.676-4.164c0-1.968 1.332-3.096 2.796-3.096 1.476 0 2.808 1.128 2.808 3.096 0 1.956-1.332 3.084-2.808 3.084-1.464 0-2.796-1.128-2.796-3.084zm1.416 0c0 1.176.516 1.956 1.38 1.956.864 0 1.392-.78 1.392-1.956 0-1.188-.528-1.968-1.392-1.968-.864 0-1.38.78-1.38 1.968zm5.496.744v-3.696h1.38v3.516c0 .972.276 1.332.912 1.332.516 0 .864-.24 1.308-.816v-4.032h1.38V55h-1.128l-.108-.864h-.036c-.516.612-1.092 1.008-1.896 1.008-1.26 0-1.812-.852-1.812-2.34zM334.25 55v-5.892h1.14l.096 1.044h.048c.42-.768 1.044-1.188 1.668-1.188.3 0 .492.036.672.12l-.24 1.2a1.926 1.926 0 0 0-.612-.096c-.468 0-1.032.324-1.392 1.212V55h-1.38zm6.684-1.584c0-1.26 1.056-1.92 3.468-2.184-.012-.624-.276-1.152-1.068-1.152-.588 0-1.14.264-1.656.576l-.504-.924c.648-.408 1.476-.768 2.412-.768 1.476 0 2.196.9 2.196 2.544V55h-1.128l-.108-.648h-.036c-.528.444-1.128.792-1.824.792-1.032 0-1.752-.696-1.752-1.728zm1.344-.108c0 .528.348.756.84.756.48 0 .852-.24 1.284-.648v-1.32c-1.596.204-2.124.624-2.124 1.212zm4.8-1.248c0-1.968 1.38-3.096 2.952-3.096.756 0 1.332.3 1.728.684l-.66.876c-.312-.276-.624-.432-.996-.432-.948 0-1.608.78-1.608 1.968 0 1.176.648 1.956 1.572 1.956.48 0 .888-.24 1.212-.504l.576.876a2.951 2.951 0 0 1-1.932.756c-1.608 0-2.844-1.128-2.844-3.084zm5.544 0c0-1.968 1.38-3.096 2.952-3.096.756 0 1.332.3 1.728.684l-.66.876c-.312-.276-.624-.432-.996-.432-.948 0-1.608.78-1.608 1.968 0 1.176.648 1.956 1.572 1.956.48 0 .888-.24 1.212-.504l.576.876a2.951 2.951 0 0 1-1.932.756c-1.608 0-2.844-1.128-2.844-3.084zm5.544 0c0-1.968 1.332-3.096 2.796-3.096 1.476 0 2.808 1.128 2.808 3.096 0 1.956-1.332 3.084-2.808 3.084-1.464 0-2.796-1.128-2.796-3.084zm1.416 0c0 1.176.516 1.956 1.38 1.956.864 0 1.392-.78 1.392-1.956 0-1.188-.528-1.968-1.392-1.968-.864 0-1.38.78-1.38 1.968zm5.496.744v-3.696h1.38v3.516c0 .972.276 1.332.912 1.332.516 0 .864-.24 1.308-.816v-4.032h1.38V55h-1.128l-.108-.864h-.036c-.516.612-1.092 1.008-1.896 1.008-1.26 0-1.812-.852-1.812-2.34zM371.81 55v-5.892h1.14l.096.792h.048c.528-.516 1.128-.936 1.932-.936 1.26 0 1.812.852 1.812 2.34V55h-1.38v-3.516c0-.972-.276-1.332-.924-1.332-.516 0-.852.252-1.344.732V55h-1.38zm6.924-1.992V50.2h-.84v-1.032l.912-.06.168-1.608h1.152v1.608h1.5V50.2h-1.5v2.808c0 .696.264 1.032.828 1.032.204 0 .444-.06.612-.132l.24 1.02a3.763 3.763 0 0 1-1.2.216c-1.368 0-1.872-.864-1.872-2.136z"/>
            <g fill="#65656C">
                <path d="M327.883 16.245c0-1.946 1.64-3.567 3.675-3.567h3.216v-1.881c0-.973-.788-1.752-1.772-1.752h-15.028c-1.247 0-1.903-.973-1.903-.973v14.336c.656 1.167 1.837 1.167 1.837 1.167h15.094c.984 0 1.772-.778 1.772-1.751v-2.011h-3.216c-2.034 0-3.675-1.622-3.675-3.568z"/>
                <path d="M334.905 13.456h-3.412c-1.575 0-2.822 1.233-2.822 2.725 0 1.491 1.247 2.724 2.822 2.724h3.346a.724.724 0 0 0 .722-.714V14.17c.066-.39-.262-.714-.656-.714zm-2.69 3.827a1.03 1.03 0 0 1-1.05-1.038c0-.583.459-1.037 1.05-1.037.59 0 1.05.454 1.05 1.037a1.03 1.03 0 0 1-1.05 1.038zM322.043 6.905c.262.454.656.843 1.115 1.167h-5.644c-.656-.13-.525-1.167 1.51-1.167H322.043zm7.35 0H332.674c.919 0 1.706.713 1.706 1.621v.195c-.328-.519-1.181-.649-1.181-.649h-4.922c.46-.324.853-.713 1.116-1.167z"/>
                <g>
                    <path d="M325.776 8.297c-2.035 0-3.675-1.621-3.675-3.632s1.64-3.568 3.675-3.568c2.034 0 3.675 1.622 3.675 3.568s-1.64 3.632-3.675 3.632zm.328-4.086v-.454h1.05v-.65h-2.822v.65h1.05v.454c-.853.065-1.51.194-1.51.389 0 .194.657.389 1.444.389v1.427h.722V4.989c.919 0 1.51-.195 1.51-.39 0-.194-.591-.323-1.444-.388zm0 .648h-.788c-.722 0-1.312-.13-1.312-.324 0-.13.525-.26 1.312-.324v.519h.788v-.454c.722 0 1.312.13 1.312.324 0 .13-.59.26-1.312.26z"/>
                </g>
            </g>
        </g>
        <path fill="#263238" fill-opacity=".87" fill-rule="nonzero" d="M155.106 39.992l.804-.948c.564.528 1.32.888 2.052.888.876 0 1.368-.396 1.368-1.008 0-.648-.504-.852-1.224-1.152l-1.068-.468c-.78-.324-1.584-.936-1.584-2.088 0-1.248 1.104-2.208 2.628-2.208.924 0 1.812.384 2.424.996l-.72.888c-.492-.42-1.032-.672-1.704-.672-.744 0-1.224.348-1.224.924 0 .612.6.84 1.248 1.104l1.056.444c.936.396 1.584.984 1.584 2.124 0 1.272-1.056 2.328-2.82 2.328a4.037 4.037 0 0 1-2.82-1.152zm6.552-1.932c0-1.92 1.332-3.096 2.712-3.096 1.596 0 2.436 1.152 2.436 2.796 0 .264-.024.504-.06.648h-3.744c.12 1.068.792 1.668 1.74 1.668.504 0 .936-.156 1.368-.432l.468.864c-.564.372-1.272.636-2.016.636-1.632 0-2.904-1.14-2.904-3.084zm1.332-.528h2.616c0-.936-.396-1.5-1.2-1.5-.696 0-1.296.516-1.416 1.5zm5.136 1.956v-6.96h1.38v7.032c0 .336.156.456.3.456.06 0 .108 0 .216-.024l.18 1.032c-.168.072-.408.12-.732.12-.984 0-1.344-.636-1.344-1.656zm3.252 0v-6.96h1.38v7.032c0 .336.156.456.3.456.06 0 .108 0 .216-.024l.18 1.032c-.168.072-.408.12-.732.12-.984 0-1.344-.636-1.344-1.656zm2.868-1.428c0-1.92 1.332-3.096 2.712-3.096 1.596 0 2.436 1.152 2.436 2.796 0 .264-.024.504-.06.648h-3.744c.12 1.068.792 1.668 1.74 1.668.504 0 .936-.156 1.368-.432l.468.864c-.564.372-1.272.636-2.016.636-1.632 0-2.904-1.14-2.904-3.084zm1.332-.528h2.616c0-.936-.396-1.5-1.2-1.5-.696 0-1.296.516-1.416 1.5zM180.714 41v-5.892h1.14l.096 1.044h.048c.42-.768 1.044-1.188 1.668-1.188.3 0 .492.036.672.12l-.24 1.2a1.926 1.926 0 0 0-.612-.096c-.468 0-1.032.324-1.392 1.212V41h-1.38zm6.552-2.94c0-1.968 1.38-3.096 2.952-3.096.756 0 1.332.3 1.728.684l-.66.876c-.312-.276-.624-.432-.996-.432-.948 0-1.608.78-1.608 1.968 0 1.176.648 1.956 1.572 1.956.48 0 .888-.24 1.212-.504l.576.876a2.951 2.951 0 0 1-1.932.756c-1.608 0-2.844-1.128-2.844-3.084zm5.544 0c0-1.968 1.332-3.096 2.796-3.096 1.476 0 2.808 1.128 2.808 3.096 0 1.956-1.332 3.084-2.808 3.084-1.464 0-2.796-1.128-2.796-3.084zm1.416 0c0 1.176.516 1.956 1.38 1.956.864 0 1.392-.78 1.392-1.956 0-1.188-.528-1.968-1.392-1.968-.864 0-1.38.78-1.38 1.968zm5.556 2.94v-5.892h1.14l.096.792h.048c.528-.516 1.128-.936 1.932-.936 1.26 0 1.812.852 1.812 2.34V41h-1.38v-3.516c0-.972-.276-1.332-.924-1.332-.516 0-.852.252-1.344.732V41h-1.38zm9.996-8.412l-.264 1.032a1.627 1.627 0 0 0-.648-.144c-.48 0-.744.312-.744.996v.636h1.152V36.2h-1.152V41h-1.38v-4.8h-.792v-1.032l.792-.06v-.612c0-1.224.564-2.112 1.956-2.112.42 0 .816.096 1.08.204zm1.224 1.488c-.492 0-.852-.324-.852-.78 0-.468.36-.792.852-.792s.852.324.852.792c0 .456-.36.78-.852.78zM210.306 41v-5.892h1.38V41h-1.38zm3.144 0v-5.892h1.14l.096 1.044h.048c.42-.768 1.044-1.188 1.668-1.188.3 0 .492.036.672.12l-.24 1.2a1.926 1.926 0 0 0-.612-.096c-.468 0-1.032.324-1.392 1.212V41h-1.38zm4.476 0v-5.892h1.14l.096.804h.048c.492-.528 1.068-.948 1.8-.948.864 0 1.356.396 1.632 1.056.564-.6 1.152-1.056 1.896-1.056 1.248 0 1.824.852 1.824 2.34V41h-1.392v-3.516c0-.972-.288-1.332-.9-1.332-.372 0-.78.24-1.236.732V41h-1.38v-3.516c0-.972-.288-1.332-.912-1.332-.36 0-.78.24-1.236.732V41h-1.38zm9.528-.672l.648-.888c.528.408 1.032.66 1.632.66.636 0 .936-.3.936-.708 0-.492-.636-.708-1.26-.948-.78-.288-1.656-.732-1.656-1.716 0-1.032.828-1.764 2.148-1.764.816 0 1.476.336 1.956.708l-.636.84c-.408-.3-.828-.504-1.296-.504-.588 0-.864.276-.864.648 0 .456.588.648 1.224.876.804.3 1.692.684 1.692 1.788 0 1.008-.804 1.824-2.292 1.824-.804 0-1.656-.348-2.232-.816zm-54.852 14.168l.036.984v1.848h-1.38v-8.22h1.14l.096.624h.048c.492-.42 1.128-.768 1.776-.768 1.464 0 2.316 1.176 2.316 3 0 2.016-1.212 3.18-2.52 3.18-.516 0-1.032-.24-1.512-.648zm.036-.984c.432.36.84.492 1.188.492.78 0 1.38-.696 1.38-2.028 0-1.176-.384-1.872-1.272-1.872-.432 0-.84.216-1.296.66v2.748zm5.136-.096c0-1.26 1.056-1.92 3.468-2.184-.012-.624-.276-1.152-1.068-1.152-.588 0-1.14.264-1.656.576l-.504-.924c.648-.408 1.476-.768 2.412-.768 1.476 0 2.196.9 2.196 2.544V55h-1.128l-.108-.648h-.036c-.528.444-1.128.792-1.824.792-1.032 0-1.752-.696-1.752-1.728zm1.344-.108c0 .528.348.756.84.756.48 0 .852-.24 1.284-.648v-1.32c-1.596.204-2.124.624-2.124 1.212zm5.064 2.916c.108.036.276.084.42.084.624 0 .984-.42 1.176-1.008l.108-.372-2.316-5.82h1.404l1.02 2.892c.168.516.336 1.104.516 1.656h.048c.144-.54.3-1.128.444-1.656l.888-2.892h1.332l-2.136 6.156c-.492 1.332-1.104 2.16-2.388 2.16a2.29 2.29 0 0 1-.768-.12l.252-1.08zm6.06-1.224v-5.892h1.14l.096.804h.048c.492-.528 1.068-.948 1.8-.948.864 0 1.356.396 1.632 1.056.564-.6 1.152-1.056 1.896-1.056 1.248 0 1.824.852 1.824 2.34V55h-1.392v-3.516c0-.972-.288-1.332-.9-1.332-.372 0-.78.24-1.236.732V55h-1.38v-3.516c0-.972-.288-1.332-.912-1.332-.36 0-.78.24-1.236.732V55h-1.38zm9.732-2.94c0-1.92 1.332-3.096 2.712-3.096 1.596 0 2.436 1.152 2.436 2.796 0 .264-.024.504-.06.648h-3.744c.12 1.068.792 1.668 1.74 1.668.504 0 .936-.156 1.368-.432l.468.864c-.564.372-1.272.636-2.016.636-1.632 0-2.904-1.14-2.904-3.084zm1.332-.528h2.616c0-.936-.396-1.5-1.2-1.5-.696 0-1.296.516-1.416 1.5zM206.442 55v-5.892h1.14l.096.792h.048c.528-.516 1.128-.936 1.932-.936 1.26 0 1.812.852 1.812 2.34V55h-1.38v-3.516c0-.972-.276-1.332-.924-1.332-.516 0-.852.252-1.344.732V55h-1.38zm6.924-1.992V50.2h-.84v-1.032l.912-.06.168-1.608h1.152v1.608h1.5V50.2h-1.5v2.808c0 .696.264 1.032.828 1.032.204 0 .444-.06.612-.132l.24 1.02a3.763 3.763 0 0 1-1.2.216c-1.368 0-1.872-.864-1.872-2.136z"/>
        <path fill="#65656C" fill-rule="nonzero" d="M184.602 11.455c-.342 0-1.248-.938-1.248-1.32l.624-7.496c0-.382.28-.694.624-.694h4.092l14.182-.89c.279 0 1.049 1.162 1.049 1.54v8.174c0 .377-.228.686-.506.686h-18.817z"/>
        <path fill="#D9D9D9" fill-rule="nonzero" stroke="#65656C" stroke-width=".5" d="M201.858 10.723h-17.906c-.33 0-.598-.312-.598-.695v-8.12c0-.382.269-.695.598-.695h12.67l.005.025 6.08-.025c.266 0 .483.308.483.683v8.144c0 .376-.217.683-.483.683h-.849z"/>
        <path fill="#65656C" fill-rule="nonzero" d="M196.074 3.243c.108-.937.94-1.661 1.96-1.661 1.094 0 1.973.832 1.973 1.87 0 .933-.714 1.7-1.657 1.843v3.409c0 .25-.218.455-.482.455h-9.654c-.265 0-.482-.205-.482-.455V3.698c0-.25.217-.455.482-.455h7.86zm1.59 2.043c-.773-.138-1.383-.698-1.554-1.42h-6.768c0 .467-.417.849-.926.849v2.972c.509 0 .925.382.925.849h7.4-.002c0-.467.416-.85.925-.85v-2.4zm-4.623 2.16c-.726 0-1.315-.558-1.315-1.245 0-.688.589-1.245 1.315-1.245s1.315.557 1.315 1.245c0 .687-.589 1.245-1.315 1.245z"/>
        <path fill="#FFF" d="M199.173 2.864c.036-.034.036-.085 0-.11l-.125-.12a.09.09 0 0 0-.126 0h-.009l-1.201 1.182a.045.045 0 0 1-.063 0l-.494-.5-.008-.01a.09.09 0 0 0-.126 0l-.125.12a.09.09 0 0 0-.027.06.09.09 0 0 0 .027.059l.017.017.7.713c.009.017.036.025.063.025a.081.081 0 0 0 .062-.025l1.435-1.411z"/>
        <path fill="#65656C" fill-rule="nonzero" d="M197.176 20.127h-6.136l-3.027-2.97a.746.746 0 0 1 0-1.065l.319-.313a.78.78 0 0 1 1.085 0l.854.837v-6.172a.762.762 0 0 1 .767-.753h.307a.762.762 0 0 1 .767.753v2.932a.772.772 0 0 1 .614-.305h.306a.77.77 0 0 1 .691.428.77.77 0 0 1 .69-.428h.307a.77.77 0 0 1 .691.428.77.77 0 0 1 .69-.428h.308a.762.762 0 0 1 .767.754v6.302zm.509 3.296a.254.254 0 0 1-.256.251h-6.752a.254.254 0 0 1-.255-.25v-2.05c0-.14.114-.252.255-.252h6.752c.14 0 .256.113.256.251v2.05z"/>
        <g>
            <path fill="#263238" fill-opacity=".87" fill-rule="nonzero" d="M14.158 41v-7.848h2.64c1.716 0 2.976.6 2.976 2.424 0 1.74-1.296 2.544-2.976 2.544H15.55V41h-1.392zm1.392-3.996h1.128c1.176 0 1.728-.468 1.728-1.428 0-.984-.588-1.308-1.728-1.308H15.55v2.736zm5.304 2.412c0-1.26 1.056-1.92 3.468-2.184-.012-.624-.276-1.152-1.068-1.152-.588 0-1.14.264-1.656.576l-.504-.924c.648-.408 1.476-.768 2.412-.768 1.476 0 2.196.9 2.196 2.544V41h-1.128l-.108-.648h-.036c-.528.444-1.128.792-1.824.792-1.032 0-1.752-.696-1.752-1.728zm1.344-.108c0 .528.348.756.84.756.48 0 .852-.24 1.284-.648v-1.32c-1.596.204-2.124.624-2.124 1.212zm5.064 2.916c.108.036.276.084.42.084.624 0 .984-.42 1.176-1.008l.108-.372-2.316-5.82h1.404L29.074 38c.168.516.336 1.104.516 1.656h.048c.144-.54.3-1.128.444-1.656l.888-2.892h1.332l-2.136 6.156c-.492 1.332-1.104 2.16-2.388 2.16a2.29 2.29 0 0 1-.768-.12l.252-1.08zm8.16-4.164c0-1.92 1.212-3.096 2.496-3.096.672 0 1.092.252 1.548.648l-.048-.948v-2.136h1.38V41h-1.14l-.096-.636h-.048c-.432.432-1.032.78-1.668.78-1.476 0-2.424-1.14-2.424-3.084zm1.428-.012c0 1.272.48 1.956 1.332 1.956.456 0 .84-.204 1.236-.66v-2.748c-.408-.36-.804-.492-1.2-.492-.756 0-1.368.708-1.368 1.944zm6.396-3.972c-.492 0-.852-.324-.852-.78 0-.468.36-.792.852-.792s.852.324.852.792c0 .456-.36.78-.852.78zM42.55 41v-5.892h1.38V41h-1.38zm3.144 0v-5.892h1.14l.096 1.044h.048c.42-.768 1.044-1.188 1.668-1.188.3 0 .492.036.672.12l-.24 1.2a1.926 1.926 0 0 0-.612-.096c-.468 0-1.032.324-1.392 1.212V41h-1.38zm4.092-2.94c0-1.92 1.332-3.096 2.712-3.096 1.596 0 2.436 1.152 2.436 2.796 0 .264-.024.504-.06.648H51.13c.12 1.068.792 1.668 1.74 1.668.504 0 .936-.156 1.368-.432l.468.864c-.564.372-1.272.636-2.016.636-1.632 0-2.904-1.14-2.904-3.084zm1.332-.528h2.616c0-.936-.396-1.5-1.2-1.5-.696 0-1.296.516-1.416 1.5zm4.752.528c0-1.968 1.38-3.096 2.952-3.096.756 0 1.332.3 1.728.684l-.66.876c-.312-.276-.624-.432-.996-.432-.948 0-1.608.78-1.608 1.968 0 1.176.648 1.956 1.572 1.956.48 0 .888-.24 1.212-.504l.576.876a2.951 2.951 0 0 1-1.932.756c-1.608 0-2.844-1.128-2.844-3.084zm6.132.948V36.2h-.84v-1.032l.912-.06.168-1.608h1.152v1.608h1.5V36.2h-1.5v2.808c0 .696.264 1.032.828 1.032.204 0 .444-.06.612-.132l.24 1.02a3.763 3.763 0 0 1-1.2.216c-1.368 0-1.872-.864-1.872-2.136zm4.128.48v-6.96h1.38v7.032c0 .336.156.456.3.456.06 0 .108 0 .216-.024l.18 1.032c-.168.072-.408.12-.732.12-.984 0-1.344-.636-1.344-1.656zm3.132 2.736c.108.036.276.084.42.084.624 0 .984-.42 1.176-1.008l.108-.372-2.316-5.82h1.404L71.074 38c.168.516.336 1.104.516 1.656h.048c.144-.54.3-1.128.444-1.656l.888-2.892h1.332l-2.136 6.156c-.492 1.332-1.104 2.16-2.388 2.16a2.29 2.29 0 0 1-.768-.12l.252-1.08zm8.724-3.216V36.2h-.84v-1.032l.912-.06.168-1.608h1.152v1.608h1.5V36.2h-1.5v2.808c0 .696.264 1.032.828 1.032.204 0 .444-.06.612-.132l.24 1.02a3.763 3.763 0 0 1-1.2.216c-1.368 0-1.872-.864-1.872-2.136zm3.744-.948c0-1.968 1.332-3.096 2.796-3.096 1.476 0 2.808 1.128 2.808 3.096 0 1.956-1.332 3.084-2.808 3.084-1.464 0-2.796-1.128-2.796-3.084zm1.416 0c0 1.176.516 1.956 1.38 1.956.864 0 1.392-.78 1.392-1.956 0-1.188-.528-1.968-1.392-1.968-.864 0-1.38.78-1.38 1.968zM.316 54.328l.648-.888c.528.408 1.032.66 1.632.66.636 0 .936-.3.936-.708 0-.492-.636-.708-1.26-.948-.78-.288-1.656-.732-1.656-1.716 0-1.032.828-1.764 2.148-1.764.816 0 1.476.336 1.956.708l-.636.84c-.408-.3-.828-.504-1.296-.504-.588 0-.864.276-.864.648 0 .456.588.648 1.224.876.804.3 1.692.684 1.692 1.788 0 1.008-.804 1.824-2.292 1.824-.804 0-1.656-.348-2.232-.816zm5.376-2.268c0-1.92 1.332-3.096 2.712-3.096 1.596 0 2.436 1.152 2.436 2.796 0 .264-.024.504-.06.648H7.036c.12 1.068.792 1.668 1.74 1.668.504 0 .936-.156 1.368-.432l.468.864c-.564.372-1.272.636-2.016.636-1.632 0-2.904-1.14-2.904-3.084zm1.332-.528H9.64c0-.936-.396-1.5-1.2-1.5-.696 0-1.296.516-1.416 1.5zm5.136 1.956v-6.96h1.38v7.032c0 .336.156.456.3.456.06 0 .108 0 .216-.024l.18 1.032c-.168.072-.408.12-.732.12-.984 0-1.344-.636-1.344-1.656zm3.252 0v-6.96h1.38v7.032c0 .336.156.456.3.456.06 0 .108 0 .216-.024l.18 1.032c-.168.072-.408.12-.732.12-.984 0-1.344-.636-1.344-1.656zm2.868-1.428c0-1.92 1.332-3.096 2.712-3.096 1.596 0 2.436 1.152 2.436 2.796 0 .264-.024.504-.06.648h-3.744c.12 1.068.792 1.668 1.74 1.668.504 0 .936-.156 1.368-.432l.468.864c-.564.372-1.272.636-2.016.636-1.632 0-2.904-1.14-2.904-3.084zm1.332-.528h2.616c0-.936-.396-1.5-1.2-1.5-.696 0-1.296.516-1.416 1.5zM24.748 55v-5.892h1.14l.096 1.044h.048c.42-.768 1.044-1.188 1.668-1.188.3 0 .492.036.672.12l-.24 1.2a1.926 1.926 0 0 0-.612-.096c-.468 0-1.032.324-1.392 1.212V55h-1.38zm6.936 0v-8.472h1.38v2.184l-.036.984c.492-.432 1.104-.732 1.704-.732 1.476 0 2.328 1.176 2.328 2.988 0 2.028-1.212 3.192-2.52 3.192-.54 0-1.116-.264-1.608-.744h-.036l-.12.6h-1.092zm1.38-1.488c.42.36.84.492 1.188.492.78 0 1.38-.696 1.38-2.028 0-1.176-.384-1.872-1.272-1.872-.432 0-.84.216-1.296.66v2.748zm5.136-.096c0-1.26 1.056-1.92 3.468-2.184-.012-.624-.276-1.152-1.068-1.152-.588 0-1.14.264-1.656.576l-.504-.924c.648-.408 1.476-.768 2.412-.768 1.476 0 2.196.9 2.196 2.544V55H41.92l-.108-.648h-.036c-.528.444-1.128.792-1.824.792-1.032 0-1.752-.696-1.752-1.728zm1.344-.108c0 .528.348.756.84.756.48 0 .852-.24 1.284-.648v-1.32c-1.596.204-2.124.624-2.124 1.212zM44.728 55v-5.892h1.14l.096.792h.048c.528-.516 1.128-.936 1.932-.936 1.26 0 1.812.852 1.812 2.34V55h-1.38v-3.516c0-.972-.276-1.332-.924-1.332-.516 0-.852.252-1.344.732V55h-1.38zm6.72 0v-8.472h1.356v5.292h.036l2.184-2.712h1.512l-2.016 2.4L56.74 55h-1.5l-1.512-2.556-.924 1.056V55h-1.356zm8.472-1.584c0-1.26 1.056-1.92 3.468-2.184-.012-.624-.276-1.152-1.068-1.152-.588 0-1.14.264-1.656.576l-.504-.924c.648-.408 1.476-.768 2.412-.768 1.476 0 2.196.9 2.196 2.544V55H63.64l-.108-.648h-.036c-.528.444-1.128.792-1.824.792-1.032 0-1.752-.696-1.752-1.728zm1.344-.108c0 .528.348.756.84.756.48 0 .852-.24 1.284-.648v-1.32c-1.596.204-2.124.624-2.124 1.212zm4.8-1.248c0-1.968 1.38-3.096 2.952-3.096.756 0 1.332.3 1.728.684l-.66.876c-.312-.276-.624-.432-.996-.432-.948 0-1.608.78-1.608 1.968 0 1.176.648 1.956 1.572 1.956.48 0 .888-.24 1.212-.504l.576.876a2.951 2.951 0 0 1-1.932.756c-1.608 0-2.844-1.128-2.844-3.084zm5.544 0c0-1.968 1.38-3.096 2.952-3.096.756 0 1.332.3 1.728.684l-.66.876c-.312-.276-.624-.432-.996-.432-.948 0-1.608.78-1.608 1.968 0 1.176.648 1.956 1.572 1.956.48 0 .888-.24 1.212-.504l.576.876a2.951 2.951 0 0 1-1.932.756c-1.608 0-2.844-1.128-2.844-3.084zm5.544 0c0-1.968 1.332-3.096 2.796-3.096 1.476 0 2.808 1.128 2.808 3.096 0 1.956-1.332 3.084-2.808 3.084-1.464 0-2.796-1.128-2.796-3.084zm1.416 0c0 1.176.516 1.956 1.38 1.956.864 0 1.392-.78 1.392-1.956 0-1.188-.528-1.968-1.392-1.968-.864 0-1.38.78-1.38 1.968zm5.496.744v-3.696h1.38v3.516c0 .972.276 1.332.912 1.332.516 0 .864-.24 1.308-.816v-4.032h1.38V55h-1.128l-.108-.864h-.036c-.516.612-1.092 1.008-1.896 1.008-1.26 0-1.812-.852-1.812-2.34zM90.796 55v-5.892h1.14l.096.792h.048c.528-.516 1.128-.936 1.932-.936 1.26 0 1.812.852 1.812 2.34V55h-1.38v-3.516c0-.972-.276-1.332-.924-1.332-.516 0-.852.252-1.344.732V55h-1.38zm6.924-1.992V50.2h-.84v-1.032l.912-.06.168-1.608h1.152v1.608h1.5V50.2h-1.5v2.808c0 .696.264 1.032.828 1.032.204 0 .444-.06.612-.132l.24 1.02a3.763 3.763 0 0 1-1.2.216c-1.368 0-1.872-.864-1.872-2.136z"/>
            <g fill="#65656C">
                <g fill-rule="nonzero">
                    <path d="M47.655 15.715a.22.22 0 0 0-.22.22v1.104c0 .122.099.22.22.22H51.16a.22.22 0 0 0 .218-.22v-1.104a.22.22 0 0 0-.218-.22h-.548v-5.626h.548a.22.22 0 0 0 .218-.22V8.764a.22.22 0 0 0-.218-.22H47.655a.22.22 0 0 0-.22.22v1.103c0 .122.099.221.22.221h.547v5.626h-.547zM40.646 18.031v.883c0 .122.098.22.22.22h17.082a.22.22 0 0 0 .22-.22v-.883a.22.22 0 0 0-.22-.22H40.866a.22.22 0 0 0-.22.22zM41.741 15.715a.22.22 0 0 0-.219.22v1.104c0 .122.098.22.22.22H45.245a.22.22 0 0 0 .219-.22v-1.104a.22.22 0 0 0-.22-.22h-.547v-5.626h.548a.22.22 0 0 0 .219-.22V8.764a.22.22 0 0 0-.22-.22h-3.504a.22.22 0 0 0-.219.22v1.103c0 .122.098.221.22.221h.547v5.626h-.548zM53.568 15.715a.22.22 0 0 0-.219.22v1.104c0 .122.098.22.22.22h3.504a.22.22 0 0 0 .219-.22v-1.104a.22.22 0 0 0-.22-.22h-.547v-5.626h.548a.22.22 0 0 0 .219-.22V8.764a.22.22 0 0 0-.22-.22H53.569a.22.22 0 0 0-.219.22v1.103c0 .122.098.221.22.221h.547v5.626h-.548zM58.715 19.686H40.099a.22.22 0 0 0-.22.221v.882c0 .122.099.22.22.22h18.616a.22.22 0 0 0 .219-.22v-.882a.22.22 0 0 0-.22-.22zM40.537 7.993h17.74a.22.22 0 0 0 .219-.22V6.018a.392.392 0 0 0-.195-.32l-8.698-4.434a.484.484 0 0 0-.392 0l-8.698 4.433a.393.393 0 0 0-.195.32v1.754c0 .122.098.221.219.221zm8.87-5.464a2.25 2.25 0 0 1 2.242 2.258 2.25 2.25 0 0 1-2.242 2.258 2.25 2.25 0 0 1-2.242-2.258 2.25 2.25 0 0 1 2.242-2.258z"/>
                </g>
                <path d="M50.2 4.02a.058.058 0 0 0-.044-.017h-.32a.649.649 0 0 0-.12-.27h.436a.058.058 0 0 0 .044-.017.059.059 0 0 0 .016-.043v-.191a.059.059 0 0 0-.016-.043.059.059 0 0 0-.044-.017h-1.558a.058.058 0 0 0-.043.017.058.058 0 0 0-.017.043v.25c0 .015.006.03.018.041a.058.058 0 0 0 .042.018h.272c.263 0 .43.07.502.212h-.774a.058.058 0 0 0-.043.017.058.058 0 0 0-.017.043v.191c0 .017.006.032.017.043a.058.058 0 0 0 .043.017h.8a.366.366 0 0 1-.192.234.845.845 0 0 1-.398.08h-.21a.058.058 0 0 0-.042.019.058.058 0 0 0-.018.042v.238c0 .016.006.03.017.04.24.256.55.612.933 1.07a.055.055 0 0 0 .047.023h.365c.026 0 .044-.011.054-.033.013-.023.01-.044-.007-.064a20.543 20.543 0 0 0-.86-1.005.95.95 0 0 0 .517-.206.7.7 0 0 0 .242-.438h.314a.058.058 0 0 0 .043-.017.058.058 0 0 0 .017-.043v-.191a.058.058 0 0 0-.017-.043z"/>
            </g>
        </g>
        <path stroke="#000" stroke-dasharray="5" stroke-linecap="square" d="M92.5 12.5h57.845M232.5 12.5h57.845" opacity=".2"/>
    </g>
</svg>
