<svg xmlns="http://www.w3.org/2000/svg" width="63" height="64" viewBox="0 0 63 64">
    <g fill="none" fill-rule="nonzero">
        <path fill="#3496F6" d="M20 4.15C28.468-.528 38.88.144 46.584 5.903c.45.336.538.973.197 1.423a1.03 1.03 0 0 1-1.432.209c-6.94-5.19-16.28-5.874-23.968-1.826l1.47.42c.516.156.828.697.706 1.223a.962.962 0 0 1-1.193.719l-4.085-1.166a1.032 1.032 0 0 1-.61-.479 1.032 1.032 0 0 1-.11-.767l1.034-4.12a.963.963 0 0 1 1.185-.685c.534.143.866.695.74 1.234l-.516 2.06z"/>
        <path fill="#FEC478" d="M49.746 38.406c-1.241-2.628-5.66-6.275-9.935-9.798-2.384-1.964-4.636-3.821-6.07-5.285l-6.562-6.688a1.3 1.3 0 0 0-.929-.394H14.437c-.602 0-1.127.418-1.273 1.014L9.227 33.31c-.118.492.048 1.01.428 1.338.407.35 1.2 1.201 2.068 2.124 1.166 1.244 2.376 2.531 3.187 3.227 4.882 4.166 10.762 8.671 11.936 9.458 1.4.905 3 1.444 4.654 1.568a4.424 4.424 0 0 0 2.98-.9 4.005 4.005 0 0 0 2.987-.031 5.197 5.197 0 0 0 2.73-2.569 5.044 5.044 0 0 0 3.291-.484 4.495 4.495 0 0 0 2.197-2.333 4.412 4.412 0 0 0 3.011-1.103c1.499-1.27 1.935-3.428 1.05-5.198z"/>
        <path fill="#EBBA16" d="M53.744 35.88l-5.25-15.805c-.13-.391-.43-.7-.813-.835-.053-.018-5.23-1.872-10.395-4.219-6.022-2.745-9.322-.936-14.039 3.874-1.796 1.828-4.234 5.533-3.601 8.25a3.286 3.286 0 0 0 2.254 2.407c2.872 1.03 6.061-.084 7.71-2.691a6.52 6.52 0 0 0 1.971-.637c.263-.115.549-.252.943-.412L49.087 38.59a1.293 1.293 0 0 0 1.615.12l2.525-1.289c.495-.335.707-.967.517-1.541z"/>
        <path fill="#2196F3" d="M15.34 13.932C13.088 11.76 4.096 11.056 1.39 10.89a1.397 1.397 0 0 0-.977.361 1.35 1.35 0 0 0-.412.977v24.08c0 .739.588 1.338 1.313 1.338h7.875c.568 0 1.073-.372 1.25-.923a142.331 142.331 0 0 0 5.312-21.705 1.352 1.352 0 0 0-.41-1.086z"/>
        <path fill="#455A64" d="M61.687 13.566a40.19 40.19 0 0 0-16.275 2.804 1.35 1.35 0 0 0-.556 1.915 179.633 179.633 0 0 1 7.678 21.054c.157.58.675.982 1.265.982h7.875A1.325 1.325 0 0 0 63 38.997V14.904c0-.74-.588-1.338-1.313-1.338z"/>
        <path fill="#3496F6" d="M44.471 58.212a1.054 1.054 0 0 1 .175.851l-.948 4.083a.912.912 0 0 1-1.15.663 1.071 1.071 0 0 1-.745-1.239l.5-2.147c-7.967 3.73-17.493 2.69-24.712-2.84a1.027 1.027 0 0 1-.215-1.419.988.988 0 0 1 1.4-.185c6.405 4.907 14.79 5.958 21.944 2.92l-1.264-.384a1.073 1.073 0 0 1-.71-1.228.911.911 0 0 1 1.158-.696l3.42 1.04a1.02 1.02 0 0 1 1.147.58z"/>
    </g>
</svg>
