<svg xmlns="http://www.w3.org/2000/svg" width="73" height="54" viewBox="0 0 73 54">
    <g fill="none" fill-rule="evenodd">
        <g transform="translate(13.62 .181)">
            <path fill="#EBBA16" fill-rule="nonzero" d="M45.55 43.472c0 10.48-10.144 9.88-22.74 9.88-12.597 0-22.742.515-22.742-9.88 0-10.48 10.145-27.92 22.741-27.92 12.597.086 22.742 17.525 22.742 27.92z"/>
            <path fill="#E7B200" fill-rule="nonzero" d="M22.81 15.638c12.596 0 22.74 17.44 22.74 27.92s-10.144 9.88-22.74 9.88"/>
            <path fill="#EBBA16" fill-rule="nonzero" d="M11.734 4.813c0-5.069 4.988-4.81 11.075-4.81 6.087 0 11.075-.259 11.075 4.81S28.896 18.387 22.81 18.387c-6.087 0-11.075-8.505-11.075-13.574z"/>
            <path fill="#E7B200" fill-rule="nonzero" d="M22.81.002c6.086 0 11.074-.258 11.074 4.811S28.896 18.387 22.81 18.387"/>
            <path fill="#04AF76" fill-rule="nonzero" d="M32.531 16.583c0 .859-.676 1.546-1.521 1.546H14.609a1.528 1.528 0 0 1-1.522-1.546v-.43c0-.86.676-1.546 1.522-1.546h16.485c.846 0 1.522.687 1.522 1.546v.43h-.085z"/>
            <path fill="#02A271" fill-rule="nonzero" d="M14.355 14.693h16.74c.845 0 1.52.687 1.52 1.546v.43c0 .859-.844 1.546-1.69 1.546"/>
            <ellipse cx="22.809" cy="36.428" fill="#04AF76" fill-rule="nonzero" rx="10.145" ry="10.309"/>
            <path fill="#02A271" fill-rule="nonzero" d="M15.623 29.125a10.04 10.04 0 0 1 14.372 0c3.974 4.038 3.974 10.567 0 14.605"/>
            <path fill="#F9DE39" d="M25.3 35.998a1.77 1.77 0 0 0 .79-.604 1.48 1.48 0 0 0 .292-.887c0-.296-.078-.565-.236-.804a1.86 1.86 0 0 0-.592-.574 2.136 2.136 0 0 0-.804-.283 7.489 7.489 0 0 0-.882-.062v-1.326H22.7v1.32h-.76v-1.32h-1.153v1.32H18.89v1.144h.764c.294 0 .532.212.532.475v3.634c0 .263-.238.475-.532.475h-.764v1.144h1.896v1.245h1.153V39.65h.76v1.245h1.168V39.64c.45-.008.774-.02.937-.035.413-.041.762-.149 1.044-.326.283-.176.504-.413.668-.708.163-.296.245-.6.245-.912a1.54 1.54 0 0 0-.38-1.036c-.252-.293-.613-.502-1.083-.624z"/>
        </g>
        <g fill="#3496F6" fill-rule="nonzero">
            <path d="M68.898 40.16l-2.597-.136a1.047 1.047 0 0 1-.206-.032c-.03-.007-.059-.02-.089-.031-.034-.013-.07-.023-.103-.04-.035-.016-.065-.038-.098-.058-.026-.016-.053-.03-.078-.049a1.063 1.063 0 0 1-.275-.31c-.016-.027-.027-.057-.04-.085-.016-.034-.034-.067-.047-.104-.013-.035-.019-.072-.027-.109-.008-.03-.018-.06-.022-.093-.01-.07-.014-.14-.01-.21l.138-2.637a1.06 1.06 0 0 1 1.106-1.01c.473.024.853.365.96.81 3.552-4.984 3.338-11.985-.87-16.73a1.079 1.079 0 0 1 .079-1.508 1.04 1.04 0 0 1 1.484.078c5.082 5.73 5.145 14.296.485 20.106l.322.017c.29.015.546.148.726.351.18.203.284.476.268.77a1.06 1.06 0 0 1-1.106 1.01zM4.716 39.89C-.366 34.16-.43 25.595 4.23 19.784l-.322-.017a1.059 1.059 0 0 1-.994-1.12 1.06 1.06 0 0 1 1.106-1.011l2.597.136c.07.004.138.015.206.032.03.008.058.02.087.031.035.013.071.023.106.04.033.016.064.038.095.057.027.017.055.03.08.05a1.053 1.053 0 0 1 .275.31c.017.028.027.057.04.086.017.034.035.067.047.103.013.036.02.073.028.11.007.031.017.06.021.092.01.07.014.14.01.21l-.138 2.637a1.06 1.06 0 0 1-1.106 1.011 1.05 1.05 0 0 1-.96-.81c-3.552 4.983-3.338 11.984.87 16.73a1.079 1.079 0 0 1-.079 1.507 1.04 1.04 0 0 1-1.484-.078z"/>
        </g>
    </g>
</svg>
