<svg xmlns="http://www.w3.org/2000/svg" width="84" height="84" viewBox="0 0 84 84">
    <g fill="none" fill-rule="nonzero">
        <path fill="#FF5093" d="M84 33.202V12.321c0-3.272-1.462-6.334-3.62-8.562-2.262-2.331-5.394-3.793-8.7-3.758H50.798c-3.271 0-6.3 1.357-8.596 3.654L22.12 23.736h-3.48l-.174 3.655L0 45.786 38.214 84l42.201-42.132A12.218 12.218 0 0 0 84 33.202zm-22.622-10.44a7.205 7.205 0 0 1-2.123-5.395l-.87-4.072 2.645-.557c.104-.104.209-.278.348-.417a7.373 7.373 0 0 1 10.441 0 7.373 7.373 0 0 1 0 10.44 7.373 7.373 0 0 1-10.44 0z"/>
        <path fill="#F23055" d="M80.415 41.868L38.214 84 19.142 64.928l42.236-42.166a7.373 7.373 0 0 0 10.441 0 7.373 7.373 0 0 0 0-10.441l8.562-8.562C82.538 5.987 84 9.05 84 12.321v20.881c0 3.272-1.288 6.37-3.585 8.666z"/>
        <path fill="#FFD396" d="M37.016 33.202c-2.879-2.878-2.879-7.562 0-10.44 2.879-2.88 7.562-2.88 10.441 0 2.879 2.878 2.879 7.562 0 10.44-2.879 2.88-7.562 2.88-10.44 0z"/>
        <path fill="#FFB64C" d="M33.536 64.525c-2.879-2.879-2.879-7.562 0-10.44 2.878-2.88 7.562-2.88 10.44 0 2.88 2.878 2.88 7.561 0 10.44-2.878 2.879-7.562 2.879-10.44 0z"/>
        <path fill="#FFD396" d="M63.292 44.374l-25.476 1.95-19.767 1.53-.348-4.941 25.475-1.95 19.768-1.53z"/>
        <path fill="#596C76" d="M61.02 12.76C54.066 9.08 46.272 7.2 38.94 6.916c-8.11-.313-15.598 1.204-20.574 4.011-4.95 2.796-5.99 6.018-5.99 8.23 0 2.084.894 4.025 2.598 5.729.915.914 2.129 1.735 3.496 2.5l3.658-3.658c-2.973-1.371-4.834-3.055-4.83-4.57 0-1.255 1.27-2.692 3.486-3.943 3.018-1.702 7.709-2.91 13.12-3.263 7.801-.509 17.102.888 25.331 5.41a7.334 7.334 0 0 1 1.784-4.602z"/>
        <path fill="#FFB64C" d="M63.292 44.374l-25.476 1.95 5.36-5.36 19.768-1.532z"/>
    </g>
</svg>
