<svg xmlns="http://www.w3.org/2000/svg" width="53" height="84" viewBox="0 0 53 84">
    <g fill="none" fill-rule="nonzero">
        <path fill="#F8B255" d="M14.27 13.284v3.465l-.014 10.624A5.341 5.341 0 0 0 15.6 30.92l3.404 3.848L6.129 30.74V10.611a2.689 2.689 0 0 1 .806-1.91 2.747 2.747 0 0 1 1.934-.787c2.988.01 5.405 2.413 5.4 5.37z"/>
        <path fill="#EAA44B" d="M24.839 18.105l-5.373 5.103-.732.644-6.703 5.975a1.279 1.279 0 0 0-.352 1.06c.059.374.086.751.08 1.129v.067h-.515c-2.306-.008-4.366 1.423-5.142 3.572L3.565 42.69l-.773 5.505-.394-3.478a87.542 87.542 0 0 1-1.017-13.71 3.972 3.972 0 0 1 1.072-2.779l3.663-3.934h.013v-.013l8.113-7.506.028-.027L21 10.505a2.715 2.715 0 0 1 1.919-.792 2.717 2.717 0 0 1 2.069.953 6 6 0 0 1 .705.954 5.36 5.36 0 0 1-.854 6.485z"/>
        <path fill="#FEC478" d="M26.385 13.808a5.34 5.34 0 0 1-1.546 4.297l-5.373 5.103-.732.644-6.703 5.975a1.279 1.279 0 0 0-.352 1.06c.059.374.086.751.08 1.129v.067h-.515c-2.306-.008-4.366 1.423-5.142 3.572L3.565 42.69c-.34-3.505-.448-7.735-.475-9.99a3.975 3.975 0 0 1 1.072-2.78l3.663-3.934h.013v-.014l8.114-7.505.027-.027 6.73-6.244a2.727 2.727 0 0 1 1.926-.792c.36-.003.716.07 1.045.215h.013l.041.08c0 .014.014.014.014.027.063.096.113.2.149.309.042.073.078.15.108.228.073.155.127.317.163.484.02.033.033.07.04.107.05.158.086.32.11.483.036.155.06.312.067.47z"/>
        <path fill="#EAA44B" d="M32.504 39.428c0 .122-.014.243-.04.362a2.046 2.046 0 0 1-.299.86c-.249.4-.55.766-.895 1.087l-.204.282-3.23-2.296a5.5 5.5 0 0 0-3.147-.993H14.012c-2.295-.005-4.341 1.428-5.101 3.571L3.429 57.689l-1.627-1.1a3.16 3.16 0 0 1-.34-.256 3.932 3.932 0 0 1-1.207-4.391l2.537-7.09.773-2.161 2.537-7.036c.776-2.149 2.836-3.58 5.142-3.572h11.641a2.767 2.767 0 0 1 1.574.497l7.027 4.927a2.357 2.357 0 0 1 1.018 1.92z"/>
        <path fill="#FEC478" d="M29.98 38.797c1.357 1.343 1.629 2.618 1.29 2.94l-.204.282-3.23-2.296a5.5 5.5 0 0 0-3.147-.993H14.012c-2.295-.005-4.341 1.428-5.101 3.571L3.429 57.689l-1.627-1.1a3.16 3.16 0 0 1-.34-.256 3.923 3.923 0 0 1 .217-1.8l2.537-7.089 3.311-9.198c.776-2.149 2.836-3.58 5.142-3.571h10.406a2.767 2.767 0 0 1 1.574.496s5.108 3.404 5.331 3.626z"/>
        <path fill="#FEC478" d="M50.21 83.107H30.482c-1.493-.008-2.7-1.207-2.7-2.686a2.686 2.686 0 0 0-1.18-2.215L4.638 63.302a4.029 4.029 0 0 1-1.547-4.673l.34-.94L8.91 42.3c.76-2.143 2.807-3.576 5.102-3.571H24.69a5.5 5.5 0 0 1 3.148.993l3.23 2.296.203-.282c.345-.321.646-.687.895-1.087a2.34 2.34 0 0 0-.679-3.143L24.46 32.58a2.767 2.767 0 0 0-1.574-.497h-4.233v-.067c-.518-2.692-.48-5.46.108-8.137l-.026-.027.732-.644 5.373-5.103a5.36 5.36 0 0 0 .149-7.439l.081-.067s4.057-2.685 6.77 1.343c2.714 4.028-5.413 7.99-1.357 16.045 2.24 4.432 8.263 8.836 9.484 9.736 7.022 6.29 10.792 15.387 10.257 24.746a32.55 32.55 0 0 0 .638 10.057l1.994 7.291a2.662 2.662 0 0 1-.52 2.277 2.727 2.727 0 0 1-2.125 1.013z"/>
        <path fill="#F8B255" d="M26.833 11.566l-.081.067a5.36 5.36 0 0 1-.15 7.439l-5.372 5.102-.733.645.027.027a20.045 20.045 0 0 0-.258 7.237h-1.614v-.067c-.518-2.692-.48-5.46.108-8.137l-.026-.027.732-.644 5.373-5.103a5.34 5.34 0 0 0 1.546-4.297 3.051 3.051 0 0 0-.068-.47 2.05 2.05 0 0 0-.108-.483.337.337 0 0 0-.04-.107 3.388 3.388 0 0 0-.272-.712 2.18 2.18 0 0 0-.15-.31c0-.012-.013-.012-.013-.026l-.04-.08h-.014a5.217 5.217 0 0 0-.692-.954l.081-.067s3.202-2.121 5.82.229a5.605 5.605 0 0 0-4.056.738z"/>
        <path fill="#FBBB66" d="M27.893 80.796c3.302-10.004-12.545-19.359-12.545-21.932 0-2.573-4.322-3.281-.598-3.281S27.652 67.94 38.476 73.97c10.824 6.031 20.558 9.59 6.94 9.137-13.62-.452-6.94 0-10.255 0-3.315 0-7.268.893-7.268-2.311z"/>
        <path fill="#F8B255" d="M41.315 62.892c-4.65 0-8.093-3.207-10.163-5.9a1.33 1.33 0 0 1-.172-1.332 1.363 1.363 0 0 1 2.331-.294c1.7 2.207 4.465 4.834 8.005 4.834.75 0 1.357.6 1.357 1.342a1.35 1.35 0 0 1-1.357 1.343l-.001.007z"/>
        <path fill="#4482C3" d="M33.929 7.914c-.543 0-1.032-.32-1.246-.814a1.332 1.332 0 0 1 .264-1.454L36.936.93a1.364 1.364 0 0 1 2.318.527c.135.472 0 .98-.354 1.323l-3.99 4.715a1.36 1.36 0 0 1-.981.418zM37.592 12.53a1.352 1.352 0 0 1-1.344-1.16 1.343 1.343 0 0 1 .98-1.476l6.318-2.155a1.359 1.359 0 0 1 1.674.93 1.342 1.342 0 0 1-.939 1.657l-6.319 2.153c-.12.034-.245.051-.37.051zM43.521 20.035c-.124 0-5.486-1.127-5.606-1.16l-1.764-.492a1.35 1.35 0 0 1-.948-.96c-.12-.466.02-.959.367-1.294a1.367 1.367 0 0 1 1.315-.332l7.001 1.602c.653.181 1.071.81.979 1.476a1.352 1.352 0 0 1-1.344 1.16z"/>
        <path fill="#EAA44B" d="M35.136 49.11a6.78 6.78 0 0 1-4.315 3.082 6.843 6.843 0 0 1-5.236-.948l-2.727-1.813a1.387 1.387 0 0 0-.747-.215h-4.178a1.357 1.357 0 0 0-1.29.913c-.08.283-.216.631-.365 1.035-1.154 3.168-2.226 6.337.38 9.6h-.014a.423.423 0 0 1 .104.476.433.433 0 0 1-.416.263.725.725 0 0 1-.176-.028.285.285 0 0 1-.109-.067c-.217-.107-.353-.188-.393-.201-5.156-2.054-2.89-8.285-1.927-10.957.136-.362.244-.671.325-.94a4.054 4.054 0 0 1 3.88-2.78h4.18a4.183 4.183 0 0 1 2.265.672l2.714 1.8a4.08 4.08 0 0 0 3.132.573 4.04 4.04 0 0 0 2.58-1.85 1.007 1.007 0 0 0-.272-1.369l-.475-.335-2.564-1.813-.067-.054-2.741-1.92a5.348 5.348 0 0 0-3.148-.994l-8.004.04c-2.298-.011-4.349 1.424-5.102 3.572L4.433 61.691l-.339.926a.948.948 0 0 0-.054.188 4 4 0 0 1-.95-4.176l.34-.94L8.91 42.3c.76-2.143 2.807-3.576 5.102-3.571H24.69a5.5 5.5 0 0 1 3.148.993l3.23 2.296 2.4 1.705.638.443a3.7 3.7 0 0 1 1.031 4.942zM13.863 11.244a5.497 5.497 0 0 0-2.998-.9c-1.497.005-2.71 1.204-2.714 2.685v9.386l-2.022 1.867V10.599c.005-1.481 1.217-2.68 2.713-2.685a5.488 5.488 0 0 1 3.84 1.57 5.58 5.58 0 0 1 1.18 1.76z"/>
    </g>
</svg>
