<svg xmlns="http://www.w3.org/2000/svg" width="61" height="60" viewBox="0 0 61 60">
    <g fill="none" fill-rule="nonzero">
        <g fill="#455A64">
            <path d="M41.463 24.396c-.994-4.3-4.02-13.443-11.33-9.92-7.32-3.527-10.345 5.643-11.334 9.936a59.133 59.133 0 0 0 22.664-.016zM47.852 27.624c-.352-.109-.74-.214-1.16-.315a33.784 33.784 0 0 0-2.315-.464 61.449 61.449 0 0 1-14.263 1.66c-4.83 0-9.648-.556-14.262-1.656-.88.148-1.68.31-2.384.484-.4.099-.771.202-1.113.308-.845.264-3.091.967-3.091 2.648 0 1.655 2.026 2.694 6.776 3.473 3.776.62 8.78.96 14.093.96 5.313 0 10.317-.34 14.093-.96 4.75-.78 6.777-1.818 6.777-3.473-.001-1.694-2.29-2.4-3.151-2.665z"/>
        </g>
        <path fill="#455A64" d="M42.298 38.5c-.348-.342-4.449-.647-8.864-.17-.88.094-1.215.343-3.302.343-2.086 0-2.422-.249-3.302-.343-4.415-.477-8.516-.172-8.864.17-.173.173-.173.859 0 1.03.174.171 1.043.687 1.217 1.201.174.514.521 3.43 1.565 4.288 1.076.884 5.132.555 5.908.173 1.739-.857 1.951-3.248 2.259-4.46.174-.687 1.217-.687 1.217-.687s1.044 0 1.217.686c.307 1.213.521 3.604 2.259 4.46.777.383 4.833.713 5.912-.172 1.041-.858 1.389-3.774 1.563-4.288.172-.515 1.043-1.03 1.215-1.2.175-.172.175-.858 0-1.03zm-17.243 3.134l-1.496 1.478a.775.775 0 0 1-.546.224.775.775 0 0 1-.547-.224.758.758 0 0 1 0-1.08l1.495-1.479a.78.78 0 0 1 1.093 0 .758.758 0 0 1 0 1.081zm12.744 0l-1.495 1.478a.775.775 0 0 1-.547.224.775.775 0 0 1-.547-.224.758.758 0 0 1 0-1.08l1.496-1.479a.78.78 0 0 1 1.093 0 .758.758 0 0 1 0 1.081z"/>
        <path fill="#DE4543" d="M51.373 8.84C45.541 3.038 37.837 0 30.133 0 22.427 0 14.722 3.037 8.89 8.84c-11.855 11.801-11.855 30.484 0 42.284C14.76 56.963 22.428 60 30.132 60c7.705 0 15.375-3.037 21.241-8.876 11.856-11.8 11.856-30.483 0-42.283zm-21.24 44.043c-5.902 0-11.77-2.287-16.258-6.72-7.952-7.949-8.977-20.296-2.474-29.442l18.731 18.644 13.325 13.26a23.047 23.047 0 0 1-13.325 4.258zm18.73-9.639L30.134 24.6 16.807 11.34a23.049 23.049 0 0 1 13.324-4.257c5.902 0 11.77 2.287 16.258 6.72 7.952 7.95 8.977 20.296 2.474 29.442z"/>
        <path fill="#E12F30" d="M46.787 13.801c8.146 7.95 9.196 20.297 2.534 29.443L30.133 24.6v10.765l13.649 13.26a24.006 24.006 0 0 1-13.65 4.258V60c7.893 0 15.75-3.037 21.76-8.876 12.144-11.8 12.144-30.483 0-42.283A31.287 31.287 0 0 0 30.131 0v7.082a23.975 23.975 0 0 1 16.655 6.72z"/>
    </g>
</svg>
