<svg xmlns="http://www.w3.org/2000/svg" width="59" height="60" viewBox="0 0 59 60">
    <g fill="none" fill-rule="nonzero">
        <path fill="#EFCE4A" d="M44.797 0l4.388 8.618L59 10.001l-7.102 6.708 1.676 9.473-8.777-4.472-8.779 4.472 1.677-9.473L30.593 10l9.814-1.383z"/>
        <path fill="#FEC478" d="M36.514 45.073c2.08 0 3.758 1.652 3.758 3.7 0 2.082-1.677 3.734-3.758 3.734h-3.356c2.08 0 3.758 1.652 3.758 3.733 0 2.049-1.678 3.7-3.758 3.7H22.62a34.01 34.01 0 0 1-14.566-3.304L3.49 45.206l.068-.133 4.496-11.596 3.894-1.916c6.477-3.205 7.953-7.929 8.255-10.54a2.198 2.198 0 0 1 .772-1.75 2.3 2.3 0 0 1 1.88-.562c3.221.496 5.671 3.238 5.671 6.542 0 1.817-.637 3.535-1.812 4.956h9.8c2.08 0 3.758 1.651 3.758 3.7 0 2.08-1.677 3.733-3.758 3.733 2.08 0 3.758 1.652 3.758 3.733 0 2.048-1.677 3.7-3.758 3.7z"/>
        <path fill="#FEC478" d="M36.514 52.507h-3.356c2.08 0 3.758 1.652 3.758 3.733 0 2.049-1.678 3.7-3.758 3.7H22.62a34.01 34.01 0 0 1-14.566-3.304L3.49 45.206v-.15l33.024.017c2.08 0 3.758 1.652 3.758 3.7 0 2.082-1.677 3.734-3.758 3.734z"/>
        <path fill="#2196F3" d="M8.054 33.477v23.16H1.678c-.94 0-1.678-.728-1.678-1.652V35.162c0-.925.738-1.652 1.678-1.652h6.31l.066-.033z"/>
        <path fill="#1384FF" d="M8.054 45.073v11.563H1.678C.738 56.636 0 55.91 0 54.985v-9.912h8.054z"/>
    </g>
</svg>
